# xmcd
#
# Track frame offsets: 
#        150
#        19858
#        35262
#        50407
#        61960
#        73733
#        89167
#        103155
#        132219
#        148896
#        167238
#        183103
#        199924
#        219550
#        234865
#        251852
#
# Disc length: 3549 seconds
#
# Revision: 2
# Processed by: cddbd v1.5.2PL0 Copyright (c) Steve Scherf et al.
# Submitted via: ExactAudioCopy v0.99pb5
#
DISCID=f10ddb10
DTITLE=Glenn Miller - [CD 01-10] - On The Sentimental Side
DYEAR=1900
DGENRE=Big Band
TTITLE0=Introduction - The Butcher Boy  [1938]
TTITLE1=Don't Wake Up My Heart  [1938]
TTITLE2=Cowboy From Brooklyn  [1938]
TTITLE3=My Best Wishes  [1938]
TTITLE4=I Know That You Know  [1938]
TTITLE5=On The Sentimental Side  [1938]
TTITLE6=On The Alamo  [1938]
TTITLE7=The Dispy Doodle  [1938]
TTITLE8=Introduction - Why'd Ya Make Me Fall In Love  [1938]
TTITLE9=Cathedral In The Pines  [1938]
TTITLE10=Down South Camp Meeting  [1938]
TTITLE11=At Your Beck And Call  [1938]
TTITLE12=Why Do I Love You-Can't Help Lovin' Dat Man-Make Believe-Ol M
TTITLE12=an River [1938]
TTITLE13=Moonshine Over Kentucky  [1938]
TTITLE14=Bugle Call Rag  [1938]
TTITLE15=Closing Them  [1938]
EXTD=
EXTT0=
EXTT1=
EXTT2=
EXTT3=
EXTT4=
EXTT5=
EXTT6=
EXTT7=
EXTT8=
EXTT9=
EXTT10=
EXTT11=
EXTT12=
EXTT13=
EXTT14=
EXTT15=
PLAYORDER=
